<svg id="Layer_3" enable-background="new 0 0 64 64" height="512" viewBox="0 0 64 64" width="512" xmlns="http://www.w3.org/2000/svg"><path d="m15 20c2.757 0 5-2.243 5-5s-2.243-5-5-5-5 2.243-5 5 2.243 5 5 5zm0-8c1.654 0 3 1.346 3 3s-1.346 3-3 3-3-1.346-3-3 1.346-3 3-3z"/><path d="m22.293 14.707c.195.195.451.293.707.293s.512-.098.707-.293l6-6c.391-.391.391-1.023 0-1.414l-3.674-3.674c.669-.14 1.343-.26 2.018-.352l-.271-1.982c-1.146.156-2.285.393-3.405.676l-.668-.668c-.391-.391-1.023-.391-1.414 0l-6 6c-.391.391-.391 1.023 0 1.414zm.707-2.121-1.586-1.586 1.586-1.586 1.586 1.586zm3-3-1.586-1.586 1.586-1.586 1.586 1.586zm-3-6.172 1.586 1.586-1.586 1.586-1.586-1.586zm-3 3 1.586 1.586-1.586 1.586-1.586-1.586z"/><path d="m2.398 24.812-.529-.128c-.323 1.333-.559 2.702-.701 4.071l1.989.207c.102-.98.271-1.955.472-2.919l3.664 3.664c.195.195.451.293.707.293s.512-.098.707-.293l6-6c.391-.391.391-1.023 0-1.414l-6-6c-.391-.391-1.023-.391-1.414 0l-6 6c-.391.391-.391 1.023 0 1.414zm5.602 2.774-1.586-1.586 1.586-1.586 1.586 1.586zm3-3-1.586-1.586 1.586-1.586 1.586 1.586zm-3-6.172 1.586 1.586-1.586 1.586-1.586-1.586zm-3 3 1.586 1.586-1.586 1.586-1.586-1.586z"/><path d="m28 31c1.654 0 3-1.346 3-3s-1.346-3-3-3-3 1.346-3 3 1.346 3 3 3zm0-4c.551 0 1 .449 1 1s-.449 1-1 1-1-.449-1-1 .449-1 1-1z"/><path d="m28 33v2c3.86 0 7-3.14 7-7h-2c0 2.757-2.243 5-5 5z"/><path d="m28 21c-3.86 0-7 3.14-7 7h2c0-2.757 2.243-5 5-5z"/><path d="m28 37v2c6.065 0 11-4.935 11-11h-2c0 4.962-4.038 9-9 9z"/><path d="m28 19v-2c-6.065 0-11 4.935-11 11h2c0-4.962 4.038-9 9-9z"/><path d="m55.901 51.74c.865-1.045 1.669-2.157 2.389-3.306l-1.695-1.062c-.579.925-1.226 1.815-1.907 2.67l-1.5-2.101c.521-1.21.812-2.542.812-3.941 0-2.671-1.04-5.183-2.929-7.071-.375-.375-1.039-.375-1.414 0l-5.657 5.657-2.301-2.301c.188-.391.301-.823.301-1.285 0-1.654-1.346-3-3-3s-3 1.346-3 3 1.346 3 3 3c.462 0 .894-.113 1.285-.301l2.301 2.301-5.657 5.657c-.188.188-.293.441-.293.707s.105.52.293.707c1.889 1.889 4.401 2.929 7.071 2.929.92 0 1.807-.135 2.654-.369l-.763 3.815c-.929.508-1.882.98-2.857 1.381l.761 1.85c.537-.221 1.067-.467 1.594-.719l-.369 1.846c-.059.294.017.599.207.83s.473.366.773.366h16c.375 0 .718-.209.889-.542.171-.334.142-.734-.075-1.039zm-17.901-12.74c0-.552.449-1 1-1s1 .448 1 1-.449 1-1 1-1-.448-1-1zm1.094 11.32 11.226-11.226c1.09 1.397 1.68 3.106 1.68 4.906 0 4.411-3.589 8-8 8-1.799 0-3.509-.59-4.906-1.68zm8.126 10.68 1.655-8.277c1.271-.713 2.366-1.698 3.218-2.872l7.964 11.149z"/><path d="m40.07 2.061c-1.323-.356-2.687-.626-4.051-.803l-.257 1.983c1.276.165 2.551.418 3.789.751z"/><path d="m33.838 3.058.126-1.996c-1.357-.086-2.753-.083-4.128.013l.138 1.995c1.286-.089 2.595-.091 3.864-.012z"/><path d="m62.615 36.899-1.976-.314c-.202 1.269-.491 2.536-.86 3.768l1.916.574c.394-1.317.704-2.671.92-4.028z"/><path d="m60.834 28.874 1.988-.213c-.146-1.368-.386-2.736-.713-4.068l-1.942.477c.306 1.245.53 2.525.667 3.804z"/><path d="m57.566 45.7 1.762.947c.65-1.21 1.225-2.476 1.707-3.763l-1.873-.701c-.451 1.203-.988 2.386-1.596 3.517z"/><path d="m45.857 4.263c-1.229-.616-2.512-1.153-3.812-1.599l-.647 1.893c1.215.416 2.414.918 3.563 1.494z"/><path d="m61 32c0 .886-.041 1.783-.121 2.666l1.992.182c.086-.944.129-1.902.129-2.848 0-.429-.009-.855-.026-1.28l-1.998.081c.016.398.024.798.024 1.199z"/><path d="m54.04 13.151 1.52-1.301c-.893-1.043-1.864-2.036-2.887-2.952l-1.334 1.49c.956.858 1.865 1.787 2.701 2.763z"/><path d="m51.088 7.572c-1.085-.849-2.234-1.63-3.415-2.323l-1.013 1.725c1.105.648 2.18 1.38 3.195 2.174z"/><path d="m57.347 17.9 1.747-.975c-.668-1.197-1.423-2.362-2.245-3.463l-1.603 1.197c.769 1.03 1.476 2.12 2.101 3.241z"/><path d="m59.644 23.21 1.906-.605c-.416-1.308-.924-2.602-1.512-3.844l-1.808.855c.55 1.162 1.025 2.371 1.414 3.594z"/><path d="m37.487 60.481.376 1.965c1.348-.258 2.692-.61 3.995-1.047l-.635-1.896c-1.219.408-2.475.737-3.736.978z"/><path d="m14.249 57.418c1.124.787 2.313 1.506 3.535 2.138l.918-1.777c-1.143-.59-2.255-1.263-3.306-1.999z"/><path d="m9.556 53.383c.947.994 1.969 1.934 3.04 2.794l1.253-1.559c-1.002-.806-1.959-1.686-2.845-2.614z"/><path d="m7.446 47.438-1.692 1.066c.732 1.161 1.548 2.284 2.428 3.339l1.536-1.281c-.823-.987-1.587-2.038-2.272-3.124z"/><path d="m19.651 60.441c1.257.548 2.567 1.016 3.893 1.391l.545-1.924c-1.239-.352-2.463-.789-3.639-1.301z"/><path d="m3 32c0-.372.007-.742.021-1.111l-1.999-.074c-.015.393-.022.789-.022 1.185 0 .982.046 1.972.138 2.94l1.991-.188c-.086-.906-.129-1.833-.129-2.752z"/><path d="m4.867 42.262-1.871.707c.485 1.281 1.062 2.544 1.715 3.753l1.76-.951c-.611-1.13-1.15-2.311-1.604-3.509z"/><path d="m25.549 62.327c1.341.284 2.716.48 4.088.584l.15-1.994c-1.283-.097-2.569-.281-3.823-.547z"/><path d="m32 61-.28-.001-.021 2 .301.001c1.276 0 2.562-.079 3.822-.234l-.245-1.984c-1.179.145-2.383.218-3.577.218z"/><path d="m3.374 36.669-1.975.32c.22 1.358.534 2.712.932 4.023l1.914-.58c-.373-1.226-.666-2.493-.871-3.763z"/></svg>